<?xml version="1.0" ?><!DOCTYPE svg  PUBLIC '-//W3C//DTD SVG 1.1//EN'  'http://www.w3.org/Graphics/SVG/1.1/DTD/svg11.dtd'><svg enable-background="new 0 0 39 39" height="39px" id="Layer_1" version="1.1" viewBox="0 0 39 39" width="39px" xml:space="preserve" xmlns="http://www.w3.org/2000/svg" xmlns:xlink="http://www.w3.org/1999/xlink"><g><path d="M20.945,28.39H8.186c-1.723,0-3.123-1.402-3.123-3.125V8.796c0-1.723,1.4-3.124,3.123-3.124h16.471   c1.723,0,3.124,1.401,3.124,3.124v12.894c0,0.432,0.35,0.781,0.78,0.781c0.432,0,0.781-0.35,0.781-0.781V8.796   c0-2.584-2.102-4.686-4.686-4.686H8.186C5.602,4.11,3.5,6.212,3.5,8.796v16.47c0,2.584,2.102,4.687,4.686,4.687h12.76   c0.432,0,0.781-0.35,0.781-0.781C21.727,28.74,21.377,28.39,20.945,28.39z" fill="#3C3C3C"/><path d="M11.205,13.992v1.262v5.292c-0.158-0.023-0.319-0.039-0.486-0.039c-1.521,0-2.756,0.968-2.756,2.163   s1.234,2.163,2.756,2.163c1.523,0,2.759-0.968,2.759-2.163v-7.928l7.37-1.659v5.637c-0.158-0.022-0.318-0.039-0.484-0.039   c-1.523,0-2.758,0.968-2.758,2.163s1.234,2.163,2.758,2.163c1.522,0,2.758-0.968,2.758-2.163v-8.273v-1.348V9.229l-11.916,2.682   V13.992z" fill="#3C3C3C"/><path d="M34.006,24.922c-3.322-1.551-4.43,2.104-4.43,2.104s-1.107-3.655-4.43-2.104   c-3.506,1.637-0.36,9.414,4.43,9.968C34.365,34.336,37.512,26.559,34.006,24.922z" fill="#3C3C3C"/></g></svg>