<?xml version="1.0" ?><svg id="Layer_1_1_" style="enable-background:new 0 0 64 64;" version="1.1" viewBox="0 0 64 64" xml:space="preserve" xmlns="http://www.w3.org/2000/svg" xmlns:xlink="http://www.w3.org/1999/xlink"><g><g/><g/><g/><g/><g/><g/><g/><g/><g/><g/><g/><g/><g/><g/><g/><g/><g/><g/><g/><g/><g/><g/><g/><g/><g/><g/><g/><g/><g/><g/><g/><g/><g/><g/><g/><g/></g><path d="M32.063,18  c-2.231-6.07-8.965-8.23-13-6c-3.971,2.195-5.75,8.875-2,14l15,17H32l15-17c3.75-5.125,1.971-11.805-2-14  c-4.035-2.23-10.769-0.07-13,6H32.063z" style="fill:none;stroke:#000000;stroke-width:2;stroke-linejoin:round;stroke-miterlimit:10;"/><path d="M57,29V17l-8.163,0.653  C48.32,15.176,46.921,13.062,45,12c-2.381-1.316-5.697-1.092-8.478,0.551L37,3H27l0.476,9.512c-2.767-1.608-6.05-1.818-8.413-0.512  c-1.922,1.062-3.322,3.179-3.838,5.658L7,17v12l11.872-0.95l8.735,9.899L27,61h10l-0.605-22.981l8.792-9.964L57,29z" style="fill:none;stroke:#000000;stroke-width:2;stroke-linejoin:round;stroke-miterlimit:10;"/></svg>